<?xml version="1.0" encoding="utf-8"?>
<!-- Generator: Adobe Illustrator 16.0.0, SVG Export Plug-In . SVG Version: 6.00 Build 0)  -->
<!DOCTYPE svg PUBLIC "-//W3C//DTD SVG 1.0//EN" "http://www.w3.org/TR/2001/REC-SVG-20010904/DTD/svg10.dtd">
<svg version="1.0" id="Layer_1" xmlns="http://www.w3.org/2000/svg" xmlns:xlink="http://www.w3.org/1999/xlink" x="0px" y="0px"
	 width="288px" height="288px" viewBox="0 0 288 288" enable-background="new 0 0 288 288" xml:space="preserve">
<rect fill="#7B0000" width="288" height="288"/>
<path fill="#FFF2C5" d="M25.68,25.616l176.839,176.84c0,0,2.312-22.007,13.341-38.154c0,0-12.604,7.092-22.056,2.365
	c-9.453-4.725-91.374-83.104-101.22-135.091L25.68,25.616z"/>
<path fill="#FFFFFF" d="M25.68,25.616l49.327,49.327c0,0,9.102-39.487,17.577-43.367L25.68,25.616z"/>
<path fill="#F19A8B" d="M179.003,178.938L25.68,25.616l5.96,66.904c51.988,9.847,130.366,91.769,135.091,101.222
	c4.726,9.451-2.363,22.054-2.363,22.054c15.548-10.618,36.518-13.153,38.055-13.329l0.097,0.099c0,0,2.244-21.307,12.826-37.373
	c0.326-0.513,0.515-0.779,0.515-0.779C195.594,189.036,182.027,181.228,179.003,178.938z"/>
<path fill="#F19A8B" d="M257.188,228.109c-2.63-2.637-8.136,1.63-8.136,1.63s-8.013-8.034-13.897-13.936s12.77-27.87,15.773-31.888
	c3.006-4.016-0.501-18.077-5.759-13.811c-5.258,4.269-21.532,28.374-26.29,30.134c-4.757,1.757-11.393,7.156-11.393,7.156l0,0
	c0,0-5.383,6.651-7.135,11.425c-1.754,4.769-25.791,21.089-30.048,26.364c-4.257,5.273,9.767,8.789,13.771,5.775
	c4.005-3.015,25.911-21.721,31.798-15.819c5.885,5.902,13.896,13.936,13.896,13.936s-4.256,5.523-1.626,8.16
	c2.629,2.637,5.132,5.148,5.132,5.148l29.046-29.127C262.32,233.258,259.815,230.745,257.188,228.109z"/>
<path fill="#FFFFFF" d="M245.127,170.063c-5.258,4.27-21.532,28.375-26.289,30.132c-4.322,1.596-10.176,6.184-11.216,7.014
	l-0.136,0.187c0,0,11.059-4.145,17.736-2.22c0,0,24.86-29.689,24.466-34.232C248.494,169.282,246.912,168.615,245.127,170.063z"/>
</svg>
