<?xml version="1.0" encoding="utf-8"?>
<!-- Generator: Adobe Illustrator 16.0.0, SVG Export Plug-In . SVG Version: 6.00 Build 0)  -->
<!DOCTYPE svg PUBLIC "-//W3C//DTD SVG 1.0//EN" "http://www.w3.org/TR/2001/REC-SVG-20010904/DTD/svg10.dtd">
<svg version="1.0" id="Layer_1" xmlns="http://www.w3.org/2000/svg" xmlns:xlink="http://www.w3.org/1999/xlink" x="0px" y="0px"
	 width="288px" height="288px" viewBox="0 0 288 288" enable-background="new 0 0 288 288" xml:space="preserve">
<rect fill="#007600" width="288" height="288"/>
<path fill="#FFEDCC" d="M243.313,98.413c-22.095,9.944-63.477,10.12-63.83,10.121v-0.015h-0.017
	c0.001-0.341,0.175-41.732,10.121-63.831c0,0-19.424-24.781-45.587-24.781S98.414,44.688,98.414,44.688
	c9.945,22.099,10.12,63.49,10.121,63.831h-0.015v0.015c-0.327-0.001-41.729-0.173-63.832-10.121c0,0-24.779,19.424-24.779,45.587
	c0,26.164,24.779,45.586,24.779,45.586c22.103-9.946,63.505-10.119,63.832-10.12v0.015h0.016
	c-0.001,0.327-0.174,41.729-10.122,63.833c0,0,19.424,24.78,45.587,24.78s45.586-24.78,45.586-24.78
	c-9.945-22.104-10.12-63.506-10.121-63.833h0.017v-0.015c0.354,0.001,41.735,0.177,63.83,10.121c0,0,24.778-19.424,24.778-45.586
	C268.091,117.836,243.313,98.413,243.313,98.413z"/>
<path fill="#A2E676" d="M220.59,119.335c-13.63,4.328-57.118,5.192-57.118,5.192s0.865-43.487,5.193-57.118
	c0,0-6.491-8.438-24.665-8.438s-24.665,8.438-24.665,8.438c4.327,13.63,5.192,57.118,5.192,57.118s-43.487-0.864-57.118-5.192
	c0,0-8.438,6.491-8.438,24.665s8.438,24.665,8.438,24.665c13.63-4.328,57.118-5.193,57.118-5.193s-0.865,43.488-5.192,57.118
	c0,0,6.491,8.438,24.665,8.438s24.665-8.438,24.665-8.438c-4.328-13.63-5.193-57.118-5.193-57.118s43.488,0.865,57.118,5.193
	c0,0,8.438-6.491,8.438-24.665S220.59,119.335,220.59,119.335z"/>
</svg>
