<?xml version="1.0" encoding="utf-8"?>
<!-- Generator: Adobe Illustrator 16.0.0, SVG Export Plug-In . SVG Version: 6.00 Build 0)  -->
<!DOCTYPE svg PUBLIC "-//W3C//DTD SVG 1.0//EN" "http://www.w3.org/TR/2001/REC-SVG-20010904/DTD/svg10.dtd">
<svg version="1.0" id="Layer_1" xmlns="http://www.w3.org/2000/svg" xmlns:xlink="http://www.w3.org/1999/xlink" x="0px" y="0px"
	 width="24px" height="24px" viewBox="0 0 24 24" enable-background="new 0 0 24 24" xml:space="preserve">
<g>
	<path d="M21,10.12h-6.779L16.96,7.3C14.23,4.6,9.81,4.5,7.08,7.2c-2.73,2.71-2.73,7.079,0,9.79c2.73,2.71,7.15,2.71,9.88,0
		C18.32,15.65,19,14.08,19,12.1h2c0,1.98-0.88,4.55-2.641,6.291c-3.51,3.479-9.209,3.479-12.719,0C2.14,14.92,2.11,9.28,5.62,5.81
		c3.51-3.47,9.14-3.47,12.649,0L21,3V10.12z"/>
</g>
</svg>
