<?xml version="1.0" encoding="utf-8"?>
<!-- Generator: Adobe Illustrator 16.0.0, SVG Export Plug-In . SVG Version: 6.00 Build 0)  -->
<!DOCTYPE svg PUBLIC "-//W3C//DTD SVG 1.0//EN" "http://www.w3.org/TR/2001/REC-SVG-20010904/DTD/svg10.dtd">
<svg version="1.0" id="Layer_1" xmlns="http://www.w3.org/2000/svg" xmlns:xlink="http://www.w3.org/1999/xlink" x="0px" y="0px"
	 width="144px" height="288px" viewBox="0 0 144 288" enable-background="new 0 0 144 288" xml:space="preserve">
<g>
	<circle fill="#000" cx="63" cy="144" r="18"/>
	<path fill="#000" d="M96.234,130.156c-4.3-10.31-13.249-18.194-24.234-21.022V69.572c5.375-3.114,9-8.914,9-15.572
		s-3.625-12.458-9-15.572V27L63,9l-9,18v11.428c-5.375,3.114-9,8.914-9,15.572s3.625,12.458,9,15.572v39.562
		C38.473,113.131,27,127.226,27,144s11.473,30.869,27,34.865v39.563c-5.375,3.113-9,8.913-9,15.572s3.625,12.459,9,15.572V261l9,18
		l9-18v-11.428c5.375-3.113,9-8.913,9-15.572s-3.625-12.459-9-15.572v-39.563c10.985-2.827,19.935-10.712,24.234-21.021L117,144
		L96.234,130.156z M63,45c4.971,0,9,4.029,9,9s-4.029,9-9,9s-9-4.029-9-9S58.029,45,63,45z M63,243c-4.971,0-9-4.029-9-9
		s4.029-9,9-9s9,4.029,9,9S67.971,243,63,243z M63,171c-14.912,0-27-12.088-27-27c0-14.912,12.088-27,27-27
		c14.912,0,27,12.088,27,27C90,158.912,77.912,171,63,171z"/>
</g>
</svg>
